<?xml version="1.0" standalone="no"?>
<!DOCTYPE svg PUBLIC "-//W3C//DTD SVG 20010904//EN"
 "http://www.w3.org/TR/2001/REC-SVG-20010904/DTD/svg10.dtd">
<svg version="1.0" xmlns="http://www.w3.org/2000/svg"
 width="512.000000pt" height="512.000000pt" viewBox="0 0 512.000000 512.000000"
 preserveAspectRatio="xMidYMid meet">
<metadata>
Created by potrace 1.11, written by Peter Selinger 2001-2013
</metadata>
<g transform="translate(0.000000,512.000000) scale(0.100000,-0.100000)"
fill="#000000" stroke="none">
<path d="M2377 5110 c-397 -31 -786 -152 -1109 -345 -123 -74 -238 -153 -238
-163 0 -4 400 -408 890 -897 l890 -890 643 643 642 642 258 -257 257 -258
-642 -642 -643 -643 635 -635 c349 -349 638 -635 642 -635 10 0 89 115 163
238 322 538 429 1219 289 1852 -103 466 -342 899 -689 1245 -405 405 -915 657
-1475 729 -151 19 -378 26 -513 16z"/>
<path d="M904 4508 l-19 -23 23 19 c21 18 27 26 19 26 -2 0 -12 -10 -23 -22z"/>
<path d="M750 4363 l-105 -108 108 105 c59 57 107 106 107 107 0 8 -13 -5
-110 -104z"/>
<path d="M604 4208 l-19 -23 23 19 c21 18 27 26 19 26 -2 0 -12 -10 -23 -22z"/>
<path d="M559 4153 c-13 -16 -12 -17 4 -4 9 7 17 15 17 17 0 8 -8 3 -21 -13z"/>
<path d="M491 4063 c-79 -108 -199 -314 -258 -445 -228 -504 -287 -1074 -167
-1618 191 -864 847 -1589 1689 -1865 274 -90 511 -128 805 -128 537 0 1025
153 1468 460 50 35 92 67 92 70 0 4 -6 1 -12 -5 -10 -10 -147 122 -650 625
l-638 638 -388 -388 -387 -387 -770 770 -770 770 255 255 c140 140 259 255
265 255 5 0 238 -228 517 -507 l508 -508 127 128 128 127 -893 893 c-846 846
-891 893 -875 910 9 9 14 17 10 17 -4 0 -29 -30 -56 -67z"/>
<path d="M4504 908 l-19 -23 23 19 c21 18 27 26 19 26 -2 0 -12 -10 -23 -22z"/>
<path d="M4360 753 l-115 -118 118 115 c64 63 117 116 117 117 0 8 -13 -5
-120 -114z"/>
<path d="M4199 603 l-24 -28 28 24 c15 14 27 26 27 28 0 8 -8 1 -31 -24z"/>
<path d="M4149 563 c-13 -16 -12 -17 4 -4 16 13 21 21 13 21 -2 0 -10 -8 -17
-17z"/>
</g>
</svg>
